PathFileType	4	(X/Y/Z)	G:\Shared drives\HPL_Drive\Nord Sprinting Study\Kristen_Nord_test\Trimmed_Nord000007.trc
DataRate	CameraRate	NumFrames	NumMarkers	Units	OrigDataRate	OrigDataStartFrame	OrigNumFrames
200.00	200.00	      7	52	mm	200.00	1209	      1933
Frame#	Time	C7			R_Shoulder			L_Shoulder			Sternum			R_humerus			R_elbow_med			R_elbow_lat			R_forearm			R_wrist_radius			R_wrist_ulna			L_humerus			L_elbow_med			L_elbow_lat			L_forearm			L_wrist_radius			L_wrist_ulna			r.ASIS			r.PSIS			r_IC			L.ASIS			L.PSIS			l_IC			r_thigh1			r_thigh2			r_thigh3			r_thigh4			r_thigh5			r_knee			r_mknee			r_shank_antsup			r_sh2			r_sh3			r_sh4			r_ankle			r_mankle			r_calc			r_5meta			r_toe			L_thigh1			L_thigh2			L_thigh3			L_thigh4			L_knee			L_mknee			L_shank_antsup			L_sh2			L_sh3			L_ankle			L_mankle			L_calc			L_5meta			L_toe			
		X1	Y1	Z1	X2	Y2	Z2	X3	Y3	Z3	X4	Y4	Z4	X5	Y5	Z5	X6	Y6	Z6	X7	Y7	Z7	X8	Y8	Z8	X9	Y9	Z9	X10	Y10	Z10	X11	Y11	Z11	X12	Y12	Z12	X13	Y13	Z13	X14	Y14	Z14	X15	Y15	Z15	X16	Y16	Z16	X17	Y17	Z17	X18	Y18	Z18	X19	Y19	Z19	X20	Y20	Z20	X21	Y21	Z21	X22	Y22	Z22	X23	Y23	Z23	X24	Y24	Z24	X25	Y25	Z25	X26	Y26	Z26	X27	Y27	Z27	X28	Y28	Z28	X29	Y29	Z29	X30	Y30	Z30	X31	Y31	Z31	X32	Y32	Z32	X33	Y33	Z33	X34	Y34	Z34	X35	Y35	Z35	X36	Y36	Z36	X37	Y37	Z37	X38	Y38	Z38	X39	Y39	Z39	X40	Y40	Z40	X41	Y41	Z41	X42	Y42	Z42	X43	Y43	Z43	X44	Y44	Z44	X45	Y45	Z45	X46	Y46	Z46	X47	Y47	Z47	X48	Y48	Z48	X49	Y49	Z49	X50	Y50	Z50	X51	Y51	Z51	X52	Y52	Z52	

1209	6.040	1209.57495	760.63092	1170.98523	1329.93286	801.12476	1154.99072	1066.70789	796.90881	1166.06775	1197.85950	871.03955	1086.96729	1495.45471	729.98749	1103.14258	1605.59448	707.66608	992.94971	1596.78101	653.73419	1052.92908	1583.24548	740.36633	1144.59448	1547.10864	843.90979	1193.30688	1583.59802	821.85126	1216.60706	876.69513	725.78253	1112.97278	778.24750	732.19897	1007.91528	775.32147	675.38733	1062.02856	820.67059	769.80878	1165.96301	871.98181	842.36548	1211.52686	823.94257	845.10547	1225.93115	1321.54285	656.01703	659.70361	1280.98889	560.38196	825.41541	1357.40015	662.24182	767.02441	1085.82227	641.74323	664.46027	1165.06921	554.27686	824.19537	1061.59644	647.95587	762.61078	1378.69873	499.03275	466.46338	1368.03918	436.94525	369.19275	1381.47583	383.42294	369.17545	1392.16504	409.27872	525.43414	1371.73047	348.97244	425.88434	1363.65784	351.88751	301.14700	1242.82678	337.99039	322.53860	1385.99243	215.25819	296.23364	1372.63647	97.30116	307.03137	1400.07300	219.18106	369.78516	1385.66711	105.43919	388.06821	1369.26819	-65.91634	355.23410	1288.70154	-53.67879	341.56061	1320.68835	-88.61633	424.28549	1371.93372	-150.35896	267.63385	1330.34021	-131.02640	217.30028	1027.27673	499.86429	473.15204	1035.34375	431.56387	351.17291	1027.65857	399.30829	538.59442	1037.33289	337.83600	417.88950	1027.25049	340.54443	325.47391	1152.87585	343.68820	305.93158	1013.91858	225.85144	307.94443	1011.32947	235.10548	397.48489	1027.20105	114.65640	401.00626	1040.09326	-63.45624	362.03952	1119.82947	-43.38194	346.20218	1082.05188	-54.64538	424.34900	1063.69360	-174.48181	281.47849	1115.55554	-161.66756	230.99348	
1210	6.045	1210.45081	760.63770	1171.12732	1330.77209	801.40167	1155.11719	1066.46948	796.87439	1166.04297	1197.93994	871.39496	1086.70776	1495.48853	730.32092	1102.99243	1605.54626	707.82330	992.80975	1596.75940	653.95898	1052.84082	1583.30066	740.72266	1144.37769	1547.21423	844.41559	1192.89404	1583.66919	822.32367	1216.31030	876.74536	726.03088	1112.74500	777.99506	732.32758	1007.41406	775.38348	675.61041	1061.85974	820.69885	770.14215	1165.76270	871.95209	842.73090	1211.26770	823.90125	845.48364	1225.62744	1321.64795	656.12738	659.57153	1281.10291	560.56549	825.27045	1357.49768	662.32507	766.92767	1085.91003	641.87512	664.40198	1164.31006	554.58881	823.68848	1061.66797	648.14294	762.51331	1378.79578	499.01483	466.45139	1368.11548	436.86465	369.18399	1381.50378	383.40347	369.11932	1391.80750	409.11392	525.31018	1371.75720	348.94730	425.90295	1363.66638	351.83398	301.15393	1242.80420	337.95834	322.59256	1386.04492	215.18837	296.20331	1372.61597	97.27146	307.01633	1400.11890	219.15976	369.75995	1385.69080	105.38104	388.03876	1369.19299	-65.99395	355.23950	1288.21252	-53.72680	341.51071	1320.65857	-88.71057	424.31357	1371.74915	-150.41708	267.57422	1330.14551	-130.98160	217.34650	1027.00464	501.38162	473.18304	1035.39294	431.55051	351.15002	1027.75610	399.36081	538.57263	1037.34790	337.83420	417.93823	1027.25928	340.54849	325.55356	1152.90417	343.69702	305.91150	1013.87518	225.86264	308.18100	1011.31763	235.11429	397.50339	1027.17810	114.66888	401.01703	1040.04492	-63.46704	362.07242	1119.78638	-43.40245	346.25195	1082.07324	-54.67093	424.25299	1063.61951	-174.51328	281.48712	1115.47791	-161.67281	230.98813	
1211	6.050	1210.60291	761.26038	1170.79260	1330.93640	801.87872	1154.83948	1066.62256	797.53412	1165.80139	1197.92822	871.73260	1086.46289	1495.49463	730.61725	1102.85217	1605.49426	707.97858	992.65076	1596.71460	654.17310	1052.76978	1583.28687	741.08569	1144.19055	1547.28247	844.88550	1192.55054	1583.69812	822.79553	1215.98877	876.76703	726.33276	1112.59521	778.04407	732.54071	1007.19147	775.43604	675.84979	1061.67444	820.67896	770.45178	1165.55884	871.90289	843.09137	1211.03638	823.87970	845.86395	1225.35059	1321.69702	656.17902	659.46814	1281.05835	560.66626	825.25513	1357.58740	662.44995	766.85333	1085.98596	641.98334	664.24646	1164.35889	554.76630	823.59039	1061.75671	648.32294	762.43060	1378.86694	499.02533	466.39706	1368.15186	436.80768	369.14429	1381.52808	383.31973	369.16348	1392.21130	409.28720	525.42517	1371.75806	348.90369	425.93573	1363.65710	351.80096	301.17917	1242.81665	337.93161	322.59512	1386.20129	215.64531	296.19330	1372.56018	97.23056	306.96988	1399.67468	219.38451	369.48083	1385.70361	105.30697	388.04916	1369.15344	-66.08517	355.22964	1288.14380	-53.78246	341.68994	1320.71753	-88.80676	424.35278	1371.95679	-150.48555	267.70340	1329.83801	-130.98228	217.46265	1027.39453	499.92371	473.01199	1035.40991	431.57471	351.10861	1027.80151	399.52045	538.54944	1037.37354	337.87280	417.95901	1027.26819	340.55249	325.55054	1152.92480	343.71970	305.91730	1013.85883	225.85719	308.09589	1011.28937	235.07430	397.51141	1027.14453	114.66655	401.03787	1039.95557	-63.42309	362.04767	1119.68628	-43.38606	346.32611	1081.98010	-54.67487	424.31711	1063.51868	-174.51010	281.50858	1115.40466	-161.69328	230.94246	
1212	6.055	1210.65320	761.60645	1170.65918	1330.98584	802.24976	1154.70947	1066.80566	798.06671	1165.02881	1197.91675	872.09991	1086.25537	1495.52710	730.89575	1102.73291	1605.50354	708.11676	992.50818	1596.69666	654.37543	1052.70239	1583.25623	741.46704	1144.00916	1547.34570	845.30511	1192.21570	1583.73499	823.27893	1215.68652	876.82080	726.60516	1112.40479	778.98267	732.85901	1006.63696	775.46460	676.11890	1061.52698	820.71106	770.83246	1165.33752	873.54913	842.95294	1211.17529	823.82361	846.21912	1225.11108	1321.78418	656.30377	659.36456	1281.07800	560.79230	825.21661	1357.64929	662.58588	766.79022	1086.06226	642.09058	664.11597	1164.30566	555.11938	823.24109	1061.80066	648.50110	762.33282	1378.92834	499.00116	466.36761	1368.22961	436.78610	369.09811	1381.55872	383.27948	369.17709	1391.81250	409.12592	525.27460	1371.76538	348.89142	425.93265	1363.64465	351.75055	301.21487	1242.84473	337.94696	322.57953	1386.07324	215.53493	296.33517	1372.52637	97.16004	306.95776	1399.73767	219.35240	369.42395	1385.70911	105.26354	387.99899	1369.13928	-66.16855	355.27084	1288.13794	-53.80437	341.65936	1320.73987	-88.88841	424.36984	1371.77515	-150.54115	267.67300	1329.61511	-131.00201	217.52530	1027.05884	501.51440	473.07590	1035.48718	431.59323	351.06009	1027.79846	399.63153	538.54767	1037.36768	337.91577	417.96140	1027.31140	340.57309	325.54846	1152.91602	343.75601	305.92480	1013.77795	225.85196	308.14352	1011.29248	235.12535	397.49921	1027.08582	114.68965	401.07452	1039.85449	-63.40702	362.05835	1119.56531	-43.40728	346.33710	1081.70374	-54.61456	424.55176	1063.42188	-174.50061	281.53030	1115.25671	-161.73842	231.01601	
1213	6.060	1210.66357	761.95520	1170.50061	1331.01880	802.61578	1154.54309	1066.67603	798.20728	1164.96313	1197.94250	872.42456	1086.01563	1495.54297	731.21796	1102.62769	1605.47571	708.24115	992.37488	1596.65869	654.58484	1052.65869	1583.23010	741.78754	1143.83789	1547.40027	845.71088	1191.86536	1583.75085	823.71149	1215.39270	876.85876	726.88647	1112.23438	778.97485	733.03894	1006.45178	775.51038	676.36151	1061.37122	820.73969	771.18134	1165.13745	872.85492	843.24677	1210.92773	823.78131	846.57965	1224.91003	1321.86292	656.39575	659.26257	1281.10107	560.99634	825.15558	1357.71436	662.71484	766.68921	1086.14453	642.18762	664.07318	1164.35583	555.30157	823.19159	1061.84607	648.67938	762.25549	1378.95667	498.95782	466.30115	1368.22705	436.71225	369.05484	1381.56531	383.18817	369.19028	1391.82458	409.17365	525.26569	1371.78796	348.83139	425.93271	1363.62708	351.70596	301.23431	1242.86609	337.89532	322.58951	1386.16833	215.49094	296.16785	1372.49438	97.12542	306.96603	1400.18860	218.98271	369.62823	1385.74707	105.21877	387.95242	1369.10718	-66.26740	355.28592	1288.57422	-53.81821	341.69543	1320.79846	-88.98737	424.42654	1371.63867	-150.58563	267.65982	1329.36340	-130.92206	217.59532	1027.14185	501.55453	473.03314	1035.47363	431.60007	351.03058	1027.88025	399.71158	538.53949	1037.40881	337.94809	417.96255	1027.32104	340.59039	325.56857	1152.92322	343.71652	305.93015	1013.81732	225.88060	308.21463	1011.30811	235.17407	397.54883	1027.04053	114.68136	401.08090	1039.75342	-63.40162	362.11337	1119.47852	-43.40992	346.42838	1081.59827	-54.60291	424.55786	1062.60059	-174.25452	282.08395	1115.07983	-161.73401	230.95795	
1214	6.065	1210.69617	762.32355	1170.33606	1331.07117	803.00635	1154.37061	1066.59985	798.50232	1164.89380	1197.99915	872.75055	1085.78979	1495.53662	731.50244	1102.52368	1605.46106	708.36432	992.24396	1596.64075	654.78448	1052.59497	1583.23279	742.13300	1143.65942	1547.65991	846.29059	1191.34351	1583.80396	824.11108	1215.15271	876.88605	727.15643	1112.07751	777.91064	732.97992	1006.67285	775.58783	676.61871	1061.23962	820.75146	771.46863	1164.91846	872.83301	843.59393	1210.69275	823.74316	846.94507	1224.66418	1321.88440	656.50708	659.15741	1281.12256	561.21564	825.03003	1357.76257	662.87360	766.56506	1086.18689	642.32788	663.90649	1164.34070	555.32813	823.34906	1061.89001	648.82440	762.18091	1378.99182	498.98840	466.22791	1368.21106	437.12997	369.04910	1381.57813	383.14090	369.16476	1391.82532	409.12601	525.22357	1371.78491	348.83603	425.93652	1363.59155	351.66315	301.26212	1242.86133	337.87912	322.56412	1386.14136	215.48409	296.16080	1372.46057	97.04433	306.94287	1400.15649	218.92487	369.51770	1385.79919	105.13029	387.93286	1369.38965	-66.35252	355.37436	1288.02063	-53.90511	341.87003	1320.90356	-89.11224	424.49854	1371.51587	-150.58855	267.60764	1329.15271	-130.83110	217.70769	1027.20679	501.68277	472.98343	1035.53540	431.65451	351.01880	1027.89209	399.84482	538.52557	1037.41748	337.98798	417.96136	1027.32056	340.59787	325.58270	1152.93335	343.71893	305.91901	1013.72705	225.88168	308.22763	1011.29645	235.19449	397.58752	1027.03430	114.69453	401.14792	1039.62561	-63.36239	362.09119	1119.38672	-43.40348	346.47513	1081.59424	-54.65717	424.48801	1062.43555	-174.25169	282.07092	1114.91870	-161.77925	230.94124	
1215	6.070	1210.75195	762.68896	1170.18420	1331.10181	803.43146	1154.18311	1066.71021	798.89203	1164.60291	1198.03345	873.12549	1085.53857	1495.54871	731.81189	1102.40942	1605.47925	708.48291	992.14514	1596.60254	654.96063	1052.56274	1583.20996	742.45825	1143.48425	1547.73889	846.69427	1191.00244	1583.84949	824.48370	1214.90894	876.91779	727.47418	1111.88953	778.14014	733.04285	1006.40363	775.64014	676.85101	1061.10303	820.77032	771.81708	1164.69348	872.81964	843.98236	1210.42920	823.72949	847.29700	1224.40735	1321.89868	656.62177	659.02954	1281.21008	561.40619	824.99396	1357.80334	663.02484	766.42285	1086.23376	642.44904	663.80798	1164.24805	555.55225	822.84698	1061.91284	648.98151	762.09979	1379.01733	498.93283	466.13858	1368.18970	436.97446	368.95697	1381.59497	383.06647	369.14050	1391.79431	409.15225	525.19409	1371.79553	348.78134	425.92841	1363.58435	351.61957	301.29596	1242.82959	337.84140	322.54877	1385.96130	215.41835	296.41916	1372.41333	97.05134	306.89166	1400.19055	218.87665	369.43054	1385.85474	105.09801	387.84628	1369.41992	-66.42682	355.36844	1288.59326	-53.93186	341.86560	1321.00000	-89.21220	424.55798	1371.42578	-150.56377	267.55646	1328.93274	-130.79851	217.65840	1027.28345	501.77338	472.93610	1035.56140	431.71561	350.99548	1027.92883	399.89893	538.49115	1037.40784	338.05966	417.97427	1027.33447	340.62671	325.58173	1152.95032	343.72198	305.92386	1013.73999	225.96066	308.18018	1011.30170	235.23787	397.58603	1026.92517	114.73994	401.14090	1039.49500	-63.32305	362.08267	1119.23706	-43.39432	346.57715	1081.33997	-54.56449	424.62903	1062.27905	-174.23549	282.11420	1114.73083	-161.78183	230.95245	
